<svg width="172" height="155" viewBox="0 0 172 155" fill="none" xmlns="http://www.w3.org/2000/svg">
<g clip-path="url(#clip0_0_1)">
<g clip-path="url(#clip1_0_1)">
<g clip-path="url(#clip2_0_1)">
<g clip-path="url(#clip3_0_1)">
<g clip-path="url(#clip4_0_1)">
<g clip-path="url(#clip5_0_1)">
<g clip-path="url(#clip6_0_1)">
<g clip-path="url(#clip7_0_1)">
<g clip-path="url(#clip8_0_1)">
<path d="M16.0036 31.3806H22.0172V32.9926L21.7314 33.075L21.136 31.9807L19.838 31.9454C19.7348 31.9375 19.6554 31.965 19.5999 32.0277C19.5443 32.0905 19.5165 32.165 19.5165 32.2513V38.3584L20.5406 38.7702L20.4692 39.0291H17.5517L17.4802 38.7702L18.1352 38.4996C18.2781 38.4446 18.3757 38.3858 18.4281 38.3231C18.4789 38.2603 18.5043 38.1701 18.5043 38.0524V31.9336L16.8848 31.9807L16.2894 33.075L16.0036 32.9926V31.3806ZM21.7671 36.3815C21.7671 35.5186 22.0172 34.8455 22.5174 34.3623C23.0175 33.8806 23.601 33.6398 24.2679 33.6398C24.9347 33.6398 25.4388 33.8336 25.7802 34.2211C26.1216 34.6102 26.2922 35.1421 26.2922 35.8167V36.205L26.1136 36.3815H22.7793C22.7952 36.9855 22.9659 37.468 23.2914 37.8288C23.6169 38.1897 24.0353 38.3701 24.5465 38.3701C25.0594 38.3701 25.55 38.2681 26.0184 38.0642L26.1851 38.3701C26.0898 38.4643 25.9747 38.56 25.8397 38.6572C25.7048 38.7561 25.488 38.8581 25.1896 38.9632C24.8926 39.0699 24.5814 39.1232 24.256 39.1232C23.5176 39.1232 22.9183 38.8816 22.4578 38.3984C21.9974 37.9167 21.7671 37.2444 21.7671 36.3815ZM24.1369 34.3929C23.7637 34.3929 23.4581 34.4517 23.2199 34.5694C23.1247 34.6871 23.031 34.8753 22.9389 35.1342C22.8484 35.3931 22.7992 35.6402 22.7912 35.8755L25.3396 35.8049C25.3396 34.8636 24.9387 34.3929 24.1369 34.3929ZM30.5435 35.3342L30.4482 34.44C30.2735 34.3929 29.9957 34.3694 29.6146 34.3694C29.2336 34.3694 28.9081 34.436 28.6382 34.5694C28.3365 34.9459 28.1856 35.4833 28.1856 36.1815C28.1856 36.8796 28.3524 37.4186 28.6858 37.7982C29.0192 38.1795 29.4479 38.3701 29.9719 38.3701C30.4958 38.3701 30.9841 38.2681 31.4366 38.0642L31.6033 38.3701C31.5064 38.4643 31.3913 38.56 31.2579 38.6572C31.123 38.7561 30.9063 38.8581 30.6078 38.9632C30.3109 39.0699 29.9997 39.1232 29.6742 39.1232C28.9359 39.1232 28.3365 38.8816 27.876 38.3984C27.4156 37.9167 27.1854 37.2444 27.1854 36.3815C27.1854 35.5186 27.437 34.8455 27.9403 34.3623C28.4452 33.8806 29.0589 33.6398 29.7813 33.6398C30.1386 33.6398 30.4561 33.7065 30.734 33.8398C31.0118 33.9732 31.1984 34.0909 31.2937 34.1929C31.3889 34.2948 31.4636 34.3968 31.5175 34.4988L30.8293 35.4166L30.5435 35.3342ZM36.3046 38.0995V35.5814C36.3046 35.1813 36.2117 34.8934 36.026 34.7177C35.8386 34.5404 35.5385 34.4517 35.1257 34.4517C34.7129 34.4517 34.3001 34.5027 33.8873 34.6047V38.3937L34.828 38.7702L34.7566 39.0291H32.0891L32.0177 38.7702L32.5536 38.5466C32.6965 38.4917 32.7941 38.4329 32.8465 38.3701C32.8973 38.3074 32.9227 38.2172 32.9227 38.0995V31.8748L32.0891 31.7453L32.0177 31.4865L33.6253 30.9334L33.8635 31.0275V34.087C34.4112 33.7889 34.9749 33.6398 35.5544 33.6398C36.6976 33.6398 37.2692 34.2399 37.2692 35.4402V38.3937L38.2099 38.7702L38.1385 39.0291H35.4711L35.3996 38.7702L35.9355 38.5466C36.0784 38.4917 36.176 38.4329 36.2284 38.3701C36.2792 38.3074 36.3046 38.2172 36.3046 38.0995ZM43.3066 32.3454V34.8871C44.0608 34.8871 44.8269 34.8518 45.6049 34.7812L45.986 34.7459L46.1169 34.8871L45.986 35.5461C45.0412 35.4911 44.1481 35.4637 43.3066 35.4637V38.4172L45.8907 38.3701L46.4623 37.3346L46.8195 37.417V39.0291H41.3418L41.2703 38.7702L41.9253 38.4996C42.0682 38.4446 42.165 38.3858 42.2158 38.3231C42.2682 38.2603 42.2944 38.1701 42.2944 38.0524V32.0513L41.2703 31.6394L41.3418 31.3806H46.76V32.9926L46.4027 33.075L45.8311 32.0395L43.6281 31.9924C43.4138 31.9924 43.3066 32.1101 43.3066 32.3454ZM52.0472 34.64L50.8802 36.2285L52.4044 38.4172L53.2976 38.7702L53.2261 39.0291H51.6781L50.1776 36.8993L49.1297 38.3937L50.0347 38.7702L49.9633 39.0291H47.5221L47.4507 38.7702L48.0342 38.5231C48.2644 38.429 48.439 38.2956 48.5581 38.123L49.8085 36.405L48.4033 34.3694L47.4983 33.9928L47.5697 33.7339H49.094L50.4872 35.7461L51.4875 34.3694L50.5825 33.9928L50.6539 33.7339H53.0951L53.1666 33.9928L52.5831 34.2399C52.3528 34.3341 52.1742 34.4674 52.0472 34.64ZM63.3337 32.3572V39.0291L62.4764 39.1232L58.0703 32.9338V38.3584L59.0944 38.7702L59.023 39.0291H56.3318L56.2603 38.7702L56.9153 38.4996C57.0582 38.4446 57.1558 38.3858 57.2082 38.3231C57.259 38.2603 57.2844 38.1701 57.2844 38.0524V32.0513L56.2603 31.6394L56.3318 31.3806H58.3204L62.5359 37.3111V37.3346L62.5478 37.3111V32.0513L61.5237 31.6394L61.5952 31.3806H64.2864L64.3579 31.6394L63.7029 31.9101C63.56 31.965 63.4632 32.0238 63.4123 32.0866C63.3599 32.1493 63.3337 32.2395 63.3337 32.3572ZM65.8583 38.0995V34.5812L65.0247 34.4517L64.9533 34.1929L66.5847 33.6398L66.8228 33.7339V38.3937L67.7636 38.7702L67.6921 39.0291H65.0247L64.9533 38.7702L65.4891 38.5466C65.632 38.4917 65.7289 38.4329 65.7797 38.3701C65.8321 38.3074 65.8583 38.2172 65.8583 38.0995ZM66.2798 32.416C66.0941 32.416 65.9393 32.3549 65.8154 32.2325C65.6932 32.1117 65.632 31.9587 65.632 31.7736C65.632 31.59 65.6932 31.4355 65.8154 31.31C65.9393 31.1844 66.0941 31.1217 66.2798 31.1217C66.4672 31.1217 66.6244 31.1844 66.7514 31.31C66.8784 31.4355 66.9419 31.59 66.9419 31.7736C66.9419 31.9587 66.8784 32.1117 66.7514 32.2325C66.6244 32.3549 66.4672 32.416 66.2798 32.416ZM72.3006 38.0995V35.5814C72.3006 35.1813 72.2069 34.8934 72.0196 34.7177C71.8338 34.5404 71.5345 34.4517 71.1217 34.4517C70.7089 34.4517 70.2961 34.5027 69.8832 34.6047V38.3937L70.824 38.7702L70.7525 39.0291H68.0851L68.0137 38.7702L68.5495 38.5466C68.6924 38.4917 68.7893 38.4329 68.8401 38.3701C68.8925 38.3074 68.9187 38.2172 68.9187 38.0995V31.8748L68.0851 31.7453L68.0137 31.4865L69.6213 30.9334L69.8594 31.0275V34.087C70.4072 33.7889 70.9708 33.6398 71.5504 33.6398C72.6936 33.6398 73.2652 34.2399 73.2652 35.4402V38.3937L74.2059 38.7702L74.1344 39.0291H71.467L71.3956 38.7702L71.9314 38.5466C72.0743 38.4917 72.1712 38.4329 72.222 38.3701C72.2744 38.3074 72.3006 38.2172 72.3006 38.0995ZM75.4301 38.0995V34.5812L74.5965 34.4517L74.525 34.1929L76.1565 33.6398L76.3946 33.7339V38.3937L77.3354 38.7702L77.2639 39.0291H74.5965L74.525 38.7702L75.0609 38.5466C75.2038 38.4917 75.3014 38.4329 75.3538 38.3701C75.4046 38.3074 75.4301 38.2172 75.4301 38.0995ZM75.854 32.416C75.6666 32.416 75.5118 32.3549 75.3896 32.2325C75.2657 32.1117 75.2038 31.9587 75.2038 31.7736C75.2038 31.59 75.2657 31.4355 75.3896 31.31C75.5118 31.1844 75.6666 31.1217 75.854 31.1217C76.0398 31.1217 76.1961 31.1844 76.3232 31.31C76.4502 31.4355 76.5137 31.59 76.5137 31.7736C76.5137 31.9587 76.4502 32.1117 76.3232 32.2325C76.1961 32.3549 76.0398 32.416 75.854 32.416ZM78.5381 38.0995V31.8748L77.7045 31.7453L77.6331 31.4865L79.2645 30.9334L79.5026 31.0275V38.3937L80.4434 38.7702L80.3719 39.0291H77.7045L77.6331 38.7702L78.1689 38.5466C78.3118 38.4917 78.4095 38.4329 78.4619 38.3701C78.5127 38.3074 78.5381 38.2172 78.5381 38.0995ZM81.9914 36.2521C81.9914 37.6641 82.5352 38.3701 83.6229 38.3701C84.0198 38.3701 84.3612 38.3113 84.647 38.1936C84.9407 37.8171 85.0876 37.2562 85.0876 36.5109C85.0876 35.0989 84.5438 34.3929 83.4561 34.3929C83.0592 34.3929 82.7178 34.4517 82.432 34.5694C82.1383 34.9459 81.9914 35.5068 81.9914 36.2521ZM83.4681 39.1232C82.7297 39.1232 82.1304 38.8839 81.6699 38.4054C81.2095 37.9269 80.9792 37.2499 80.9792 36.3744C80.9792 35.5006 81.2333 34.8259 81.7414 34.3505C82.2495 33.8767 82.8726 33.6398 83.611 33.6398C84.3493 33.6398 84.9486 33.8791 85.4091 34.3576C85.8695 34.8361 86.0998 35.5123 86.0998 36.3862C86.0998 37.2617 85.8457 37.9363 85.3376 38.4101C84.8296 38.8855 84.2064 39.1232 83.4681 39.1232Z" fill="black"/>
</g>
</g>
</g>
</g>
</g>
</g>
</g>
<path d="M16 29.2331V0.283386H86.1032V29.2331H85.3558V1.02193H16.7474V29.2331H16ZM16 40.8236V69.7733H86.1032V40.8236H85.3558V69.0347H16.7474V40.8236H16Z" fill="black"/>
</g>
</g>
<defs>
<clipPath id="clip0_0_1">
<rect width="70.1033" height="70.0567" fill="white" transform="translate(16)"/>
</clipPath>
<clipPath id="clip1_0_1">
<rect width="70.1033" height="70.0567" fill="white" transform="translate(16)"/>
</clipPath>
<clipPath id="clip2_0_1">
<rect width="70.1033" height="8.1898" fill="white" transform="translate(16 30.9334)"/>
</clipPath>
<clipPath id="clip3_0_1">
<rect width="70.1033" height="8.1898" fill="white" transform="translate(16 30.9334)"/>
</clipPath>
<clipPath id="clip4_0_1">
<rect width="70.1033" height="8.1898" fill="white" transform="translate(16 30.9334)"/>
</clipPath>
<clipPath id="clip5_0_1">
<rect width="70.1033" height="8.1898" fill="white" transform="translate(16 30.9334)"/>
</clipPath>
<clipPath id="clip6_0_1">
<rect width="70.1033" height="8.1898" fill="white" transform="translate(16 30.9334)"/>
</clipPath>
<clipPath id="clip7_0_1">
<rect width="70.1033" height="8.1898" fill="white" transform="translate(16 30.9334)"/>
</clipPath>
<clipPath id="clip8_0_1">
<rect width="70.1033" height="8.1898" fill="white" transform="translate(16 30.9334)"/>
</clipPath>
</defs>
</svg>
